# Blender v2.80 (sub 75) OBJ File: 'untitled.blend'
# www.blender.org
mtllib ./assets/3d_models/cube_isosphere_materials.mtl
o Cube_Cube.002
v 2.500000 -0.500000 -2.500000
v 2.500000 2.500000 -2.500000
v 2.500000 -0.500000 -1.500000
v 2.500000 2.500000 -1.500000
v 1.500000 -0.500000 -2.500000
v 1.500000 2.500000 -2.500000
v 1.500000 -0.500000 -1.500000
v 1.500000 2.500000 -1.500000
vt 0.625000 0.000000
vt 0.375000 0.250000
vt 0.375000 0.000000
vt 0.625000 0.250000
vt 0.375000 0.500000
vt 0.625000 0.500000
vt 0.375000 0.750000
vt 0.625000 0.750000
vt 0.375000 1.000000
vt 0.125000 0.750000
vt 0.125000 0.500000
vt 0.875000 0.500000
vt 0.625000 1.000000
vt 0.875000 0.750000
vn 1.0000 0.0000 0.0000
vn 0.0000 0.0000 1.0000
vn -1.0000 0.0000 0.0000
vn 0.0000 0.0000 -1.0000
vn 0.0000 -1.0000 0.0000
vn 0.0000 1.0000 0.0000
usemtl None
s off
f 2/1/1 3/2/1 1/3/1
f 4/4/2 7/5/2 3/2/2
f 8/6/3 5/7/3 7/5/3
f 6/8/4 1/9/4 5/7/4
f 7/5/5 1/10/5 3/11/5
f 4/12/6 6/8/6 8/6/6
f 2/1/1 4/4/1 3/2/1
f 4/4/2 8/6/2 7/5/2
f 8/6/3 6/8/3 5/7/3
f 6/8/4 2/13/4 1/9/4
f 7/5/5 5/7/5 1/10/5
f 4/12/6 2/14/6 6/8/6
o Cone
v -0.122017 0.000000 -1.021308
v -1.853551 0.000000 -0.978991
v -1.024432 0.000000 -2.499701
v -1.000000 2.000000 -1.500000
vt 0.250000 0.490000
vt 0.250000 0.250000
vt 0.457846 0.130000
vt 0.042154 0.130000
vt 0.750000 0.490000
vt 0.957846 0.130000
vt 0.542154 0.130000
vn 0.0237 0.2425 0.9699
vn -0.8518 0.2425 -0.4644
vn 0.8281 0.2425 -0.5055
vn 0.0000 -1.0000 0.0000
usemtl None
s off
f 9/15/7 12/16/7 10/17/7
f 10/17/8 12/16/8 11/18/8
f 11/18/9 12/16/9 9/15/9
f 9/19/10 10/20/10 11/21/10
